<?xml version="1.0" encoding="UTF-8"?>
<svg id="Layer_2" data-name="Layer 2" xmlns="http://www.w3.org/2000/svg" viewBox="0 0 759.67 546.96">
  <defs>
    <style>
      .cls-1 {
        fill: #0f1f3d;
      }

      .cls-2 {
        fill: #0084fe;
      }
    </style>
  </defs>
  <g id="Layer_1-2" data-name="Layer 1">
    <g>
      <g>
        <g id="Igxec3">
          <g>
            <path class="cls-1" d="M544.76,37.11c-26,21.49-51.41,43.26-76.49,65.83l-54.9,49.41c-3.13,2.16-4.73,4.98-4.74,8.82v74.84s-29.32,29.16-29.32,29.16l-29.29-29.15v-74.84c-.03-3.83-1.62-6.67-4.76-8.81l-54.9-49.41c-25.08-22.57-50.48-44.34-76.49-65.83C198.43,24.39,183.44,11.68,166.3.01c4.92,22.14,10.98,42.75,17.35,63.54.94,3.07,3.59,4.52,5.61,6.84l105.02,79.4c1.85,1.4,2.89,2.72,2.89,5.15l.05,94.32c0,2.55.45,4.68,2.25,6.5l73.06,74.72c1.92,1.96,4.35,2.75,6.8,2.66v-.03c2.44.09,4.86-.7,6.78-2.66l73.06-74.71c1.79-1.83,2.25-3.96,2.25-6.5l.05-94.32c0-2.43,1.04-3.76,2.88-5.16l105.02-79.39c2.03-2.33,4.68-3.77,5.61-6.84,6.37-20.8,12.42-41.41,17.35-63.54-17.14,11.66-32.14,24.37-47.57,37.11ZM379.31,310.09l-62.75-63.7.07-90.89c4.29,2.61,8.02,5.85,11.75,9.36,1.25,1.17,1.34,3.17,1.34,4.72v70.24c-.07,1.69.3,2.9,1.47,4.08l48.12,48.7.03-.03h.01l48.12-48.69c1.16-1.18,1.53-2.39,1.47-4.08v-70.25c0-1.55.09-3.53,1.34-4.7,3.73-3.51,7.46-6.74,11.75-9.37l.06,90.9-62.76,63.71Z"/>
            <path class="cls-2" d="M284.97,208.37l-80.03-56.53c-3.59-2.54-6.84-4.72-9.44-8.12-2.33-3.45-3.54-7.17-5.45-10.98l-22.56-58.09,49.49,35.51,64.16,46.54c2.14,1.74,3.49,3.66,3.87,6.35l-.05,45.33Z"/>
            <path class="cls-1" d="M286.1,259.65l-53.19-39.76c-3.22-2.94-7.6-4.83-9.66-8.85-6.62-12.86-12.67-25.9-17.57-40.42l72.4,48c5.23,3.42,7.76,8.55,8.09,14.7l-.07,26.33Z"/>
          </g>
        </g>
        <g id="Igxec3-2" data-name="Igxec3">
          <g>
            <path class="cls-2" d="M473.65,208.35l80.03-56.53c3.59-2.54,6.84-4.72,9.44-8.12,2.33-3.45,3.54-7.17,5.45-10.98l22.56-58.09-49.49,35.51-64.16,46.54c-2.14,1.74-3.49,3.66-3.87,6.35l.05,45.33Z"/>
            <path class="cls-1" d="M472.53,259.63l53.19-39.76c3.22-2.94,7.6-4.83,9.66-8.85,6.62-12.86,12.67-25.9,17.57-40.42l-72.4,48c-5.23,3.42-7.76,8.55-8.09,14.7l.07,26.33Z"/>
          </g>
        </g>
      </g>
      <g>
        <g>
          <path class="cls-1" d="M124.56,406.38l10.71.45c2.71,9.65,3.92,19,3.92,28.65s-1.06,18.85-3.92,28.65c-22.47.9-45.84,1.51-67.85,1.51-13.87,0-34.08-.9-67.1-1.51v-95c30.01-.6,49.01-1.21,61.97-1.21,18.85,0,39.05.15,58.66,1.21,3.02,8.75,4.52,17.34,4.52,25.78,0,3.92-.3,7.69-.9,11.46ZM30.77,405.02h42.97c6.48,0,11.91,0,19-.45.75-3.32,1.21-6.33,1.21-9.65s-.45-5.88-.91-9.2c-9.8-.6-19.15-.6-30.91-.6s-21.41.45-31.21.9l-.15,19ZM30.77,446.79c11.76.75,22.77,1.06,36.64,1.06,15.08,0,27.44-.3,40.41-.75.75-3.92,1.06-7.54,1.06-11.61s-.3-7.69-1.06-11.61c-13.42-.6-26.24-.6-41.77-.6H30.77v23.52Z"/>
          <path class="cls-1" d="M250.77,415.73c.6-4.37.9-8.44.9-12.97,0-4.22-.3-8.59-.9-12.97-7.39-.6-23.52-.9-32.72-.9-25.33,0-44.48.45-64.39,1.06v-20.81c30.91-.3,51.12-1.51,64.54-1.51,20.66,0,41.92,1.06,63.18,3.47,1.51,8.44,2.56,16.89,2.87,25.48.15,2.86.15,5.58.15,8.44-.15,9.65-1.06,19.6-3.02,29.4-8.29.75-16.74,1.36-25.03,1.66l36.19,28.05h-40.86l-33.17-27.14h-4.98c-7.24,0-16.44-.15-28.35-.3v27.44h-31.51v-48.1c42.07.6,51.72.75,64.39.75s22.17-.3,32.72-1.06Z"/>
          <path class="cls-1" d="M417.39,369.44l42.97,94.69h-31.51l-8.29-17.94h-77.96l-8.29,17.94h-31.67l43.12-94.69c12.97-1.06,23.82-1.36,35.74-1.36s22.77.3,35.89,1.36ZM367.93,391.3l-15.53,33.47h58.2l-15.53-33.47c-2.86-.45-9.5-.6-13.57-.6s-10.55.15-13.57.6Z"/>
          <path class="cls-1" d="M538.32,441.97l31.36-72.83h33.78l-39.81,94.69c-12.82,1.06-24.13,1.36-35.89,1.36s-22.92-.3-35.89-1.36l-39.81-94.69h33.93l31.21,72.83c2.71.3,6.79.6,10.56.6s7.84-.3,10.55-.6Z"/>
          <path class="cls-1" d="M687.6,465.64c-23.37,0-46.89-1.21-70.42-4.07-1.21-15.23-1.81-29.71-1.81-44.93s.6-29.71,1.81-44.93c23.52-2.86,47.04-4.07,70.27-4.07s46.74,1.21,70.27,4.07c1.21,15.23,1.81,29.71,1.81,44.93s-.6,29.71-1.81,44.93c-23.52,2.87-46.89,4.07-70.27,4.07ZM649.6,441.21c12.36,1.21,25.63,1.81,38,1.81s25.48-.6,37.85-1.81c.91-8.44,1.36-16.13,1.36-24.58s-.45-16.13-1.36-24.58c-12.36-1.21-25.63-1.81-37.85-1.81s-25.63.6-38,1.81c-.91,8.44-1.21,16.13-1.21,24.58s.3,16.13,1.21,24.58Z"/>
        </g>
        <g>
          <path class="cls-1" d="M133.87,529.53c-.71-3.37-1-6.26-1-9.51,0-3.6.29-6.56,1-10.1,8.39-.94,16.72-1.36,24.93-1.36s16.72.24,25.16.89v7.8c-6.2-.29-12.17-.65-19.9-.65-7.27,0-12.88.3-18.78.71-.18.89-.24,1.77-.24,2.72,0,.89.06,1.71.24,2.6,12.82.77,25.81.41,38.98,2.83.65,3.48,1,6.32,1,9.81s-.29,6.73-1,10.34c-8.5.95-16.89,1.36-25.28,1.36s-16.72-.24-25.1-.89v-7.8c6.26.35,12.46.65,20.44.65,7.26,0,12.94-.3,18.43-.71.12-.89.24-1.89.24-3.01,0-1-.06-1.95-.24-2.95-12.99-.59-25.69-.53-38.87-2.72Z"/>
          <path class="cls-1" d="M259.45,531.01h-26.4v6.67c6.14.59,12.82.71,18.96.71s13.47-.12,19.67-.71v8.56c-8.39.47-16.3.71-24.51.71-8.8,0-17.84-.24-26.52-.71v-36.98c9.21-.47,18.9-.71,28.18-.71,7.56,0,14.94.24,22.68.71v8.56c-6.56-.59-14.53-.71-21.03-.71-5.73,0-11.81.12-17.42.59v6.91h26.34l.06,6.38Z"/>
          <path class="cls-1" d="M347.16,537.39c.24-1.59.41-3.01.47-4.67h12.82c-.12,4.13-.47,8.03-1.12,12.23-8.8,1.42-17.48,2.01-26.23,2.01s-17.48-.59-26.29-2.01c-.77-5.85-1.18-11.34-1.18-17.19s.41-11.34,1.18-17.19c8.8-1.42,17.54-2.01,26.29-2.01s17.42.41,26.23,1.59c.65,4.37,1,8.39,1.12,12.64h-12.82c-.06-1.54-.24-3.01-.47-4.67-4.37-.59-9.69-.71-14.06-.71s-9.75.12-14.18.71c-.29,3.31-.47,6.32-.47,9.63s.18,6.32.47,9.63c4.43.59,9.75.71,14.18.71s9.69-.12,14.06-.71Z"/>
          <path class="cls-1" d="M397.59,544.95c-.88-9.45-1.3-19.73-1.3-29.18v-6.62h12.64v6.62c0,6.97.24,14.77.59,21.62,4.55.59,9.33.71,13.88.71s9.33-.12,13.88-.71c.41-6.85.59-14.65.59-21.62v-6.62h12.64v6.62c0,9.51-1,19.73-1.3,29.18-8.68,1.42-17.19,2.01-25.81,2.01s-17.13-.59-25.81-2.01Z"/>
          <path class="cls-1" d="M524.58,527.41c.24-1.71.35-3.31.35-5.08,0-1.65-.12-3.37-.35-5.08-2.89-.24-9.21-.35-12.82-.35-9.92,0-17.42.18-25.22.41v-8.15c12.11-.12,20.02-.59,25.28-.59,8.09,0,16.42.41,24.75,1.36.59,3.31,1,6.62,1.12,9.98.06,1.12.06,2.19.06,3.31-.06,3.78-.41,7.68-1.18,11.52-3.25.3-6.56.53-9.8.65l14.18,10.99h-16.01l-13-10.63h-1.95c-2.84,0-6.44-.06-11.11-.12v10.75h-12.34v-18.84c16.48.24,20.26.3,25.22.3s8.68-.12,12.82-.41Z"/>
          <path class="cls-1" d="M614.54,531.01h-26.4v6.67c6.14.59,12.82.71,18.96.71s13.47-.12,19.67-.71v8.56c-8.39.47-16.3.71-24.51.71-8.8,0-17.84-.24-26.52-.71v-36.98c9.21-.47,18.9-.71,28.17-.71,7.56,0,14.94.24,22.68.71v8.56c-6.56-.59-14.53-.71-21.03-.71-5.73,0-11.81.12-17.42.59v6.91h26.34l.06,6.38Z"/>
        </g>
        <polygon class="cls-2" points="757.9 528.7 641.11 536.71 641.11 520.69 757.9 528.7"/>
        <polygon class="cls-2" points="0 528.48 116.79 536.49 116.79 520.47 0 528.48"/>
      </g>
    </g>
  </g>
</svg>
