<?xml version="1.0" encoding="UTF-8"?>
<svg xmlns="http://www.w3.org/2000/svg" viewBox="155 -10 450 340">
  <g>
    <path fill="#0f1f3d" d="M544.76,37.11c-26,21.49-51.41,43.26-76.49,65.83l-54.9,49.41c-3.13,2.16-4.73,4.98-4.74,8.82v74.84s-29.32,29.16-29.32,29.16l-29.29-29.15v-74.84c-.03-3.83-1.62-6.67-4.76-8.81l-54.9-49.41c-25.08-22.57-50.48-44.34-76.49-65.83C198.43,24.39,183.44,11.68,166.3.01c4.92,22.14,10.98,42.75,17.35,63.54.94,3.07,3.59,4.52,5.61,6.84l105.02,79.4c1.85,1.4,2.89,2.72,2.89,5.15l.05,94.32c0,2.55.45,4.68,2.25,6.5l73.06,74.72c1.92,1.96,4.35,2.75,6.8,2.66v-.03c2.44.09,4.86-.7,6.78-2.66l73.06-74.71c1.79-1.83,2.25-3.96,2.25-6.5l.05-94.32c0-2.43,1.04-3.76,2.88-5.16l105.02-79.39c2.03-2.33,4.68-3.77,5.61-6.84,6.37-20.8,12.42-41.41,17.35-63.54-17.14,11.66-32.14,24.37-47.57,37.11ZM379.31,310.09l-62.75-63.7.07-90.89c4.29,2.61,8.02,5.85,11.75,9.36,1.25,1.17,1.34,3.17,1.34,4.72v70.24c-.07,1.69.3,2.9,1.47,4.08l48.12,48.7.03-.03h.01l48.12-48.69c1.16-1.18,1.53-2.39,1.47-4.08v-70.25c0-1.55.09-3.53,1.34-4.7,3.73-3.51,7.46-6.74,11.75-9.37l.06,90.9-62.76,63.71Z"/>
    <path fill="#0084fe" d="M284.97,208.37l-80.03-56.53c-3.59-2.54-6.84-4.72-9.44-8.12-2.33-3.45-3.54-7.17-5.45-10.98l-22.56-58.09,49.49,35.51,64.16,46.54c2.14,1.74,3.49,3.66,3.87,6.35l-.05,45.33Z"/>
    <path fill="#0f1f3d" d="M286.1,259.65l-53.19-39.76c-3.22-2.94-7.6-4.83-9.66-8.85-6.62-12.86-12.67-25.9-17.57-40.42l72.4,48c5.23,3.42,7.76,8.55,8.09,14.7l-.07,26.33Z"/>
    <path fill="#0084fe" d="M473.65,208.35l80.03-56.53c3.59-2.54,6.84-4.72,9.44-8.12,2.33-3.45,3.54-7.17,5.45-10.98l22.56-58.09-49.49,35.51-64.16,46.54c-2.14,1.74-3.49,3.66-3.87,6.35l.05,45.33Z"/>
    <path fill="#0f1f3d" d="M472.53,259.63l53.19-39.76c3.22-2.94,7.6-4.83,9.66-8.85,6.62-12.86,12.67-25.9,17.57-40.42l-72.4,48c-5.23,3.42-7.76,8.55-8.09,14.7l.07,26.33Z"/>
  </g>
</svg>